<svg width="90" height="90" viewBox="0 0 90 90" fill="none" xmlns="http://www.w3.org/2000/svg">
<path d="M78.6139 11.9276H71.0235V4.33739C71.0237 1.9517 69.0716 0 66.6872 0H11.3851C8.99955 0 7.04785 1.9517 7.04785 4.33739V73.7348C7.04785 76.1203 8.99955 78.0722 11.3852 78.0722H18.9756V85.6626C18.9756 88.0481 20.9265 90 23.313 90H60.1794C62.5639 90 65.9383 88.662 67.6743 87.0279L79.7908 75.6229C81.5289 73.9888 82.9494 70.6989 82.9494 68.3134L82.9515 16.2654C82.9513 13.8795 80.9994 11.9276 78.6139 11.9276ZM18.9753 16.2652V74.8192H11.3851C10.7974 74.8192 10.3009 74.3226 10.3009 73.735V4.33739C10.3009 3.74976 10.7974 3.25318 11.3851 3.25318H66.6873C67.2739 3.25318 67.7715 3.74976 67.7715 4.33739V11.9278H23.3127C20.9261 11.9278 18.9753 13.8795 18.9753 16.2652ZM77.5611 73.2544L65.4447 84.6586C65.1965 84.8918 64.8733 85.1205 64.5164 85.3383V75.3613C64.5164 74.6164 64.8168 73.9461 65.3124 73.4474C65.8123 72.9519 66.4824 72.6506 67.2273 72.6506H78.0762C77.908 72.8791 77.7357 73.0895 77.5611 73.2544ZM79.696 68.313C79.696 68.6351 79.6373 69.0081 79.5485 69.3973H67.2272C63.9364 69.4038 61.2699 72.0702 61.2633 75.3611V86.6153C60.8762 86.6936 60.5032 86.7465 60.179 86.7465H23.3127V86.7467C22.7238 86.7467 22.2285 86.2501 22.2285 85.6624V16.265C22.2285 15.6774 22.724 15.1808 23.3127 15.1808H78.6137C79.2014 15.1808 79.6979 15.6774 79.6979 16.265L79.696 68.313Z" fill="black"/>
<path d="M66.6874 27.1084H35.2417C34.3428 27.1084 33.6152 27.836 33.6152 28.7349C33.6152 29.6338 34.343 30.3614 35.2417 30.3614H66.6874C67.5853 30.3614 68.3139 29.6338 68.3139 28.7349C68.3139 27.836 67.5853 27.1084 66.6874 27.1084Z" fill="black"/>
<path d="M66.6874 48.7949H35.2417C34.3428 48.7949 33.6152 49.5225 33.6152 50.4214C33.6152 51.3204 34.343 52.0479 35.2417 52.0479H66.6874C67.5853 52.0479 68.3139 51.3204 68.3139 50.4214C68.3139 49.5223 67.5853 48.7949 66.6874 48.7949Z" fill="black"/>
<path d="M52.5919 59.6382H35.2427C34.3438 59.6382 33.6162 60.3657 33.6162 61.2647C33.6162 62.1636 34.3438 62.8912 35.2427 62.8912H52.5919C53.4898 62.8912 54.2174 62.1636 54.2174 61.2647C54.2174 60.3657 53.4898 59.6382 52.5919 59.6382Z" fill="black"/>
<path d="M66.6874 37.9517H35.2417C34.3428 37.9517 33.6152 38.6792 33.6152 39.5782C33.6152 40.4771 34.343 41.2047 35.2417 41.2047H66.6874C67.5853 41.2047 68.3139 40.4771 68.3139 39.5782C68.3139 38.6792 67.5853 37.9517 66.6874 37.9517Z" fill="black"/>
</svg>
