<svg width="40" height="60" viewBox="0 0 40 60" fill="none" xmlns="http://www.w3.org/2000/svg">
<path d="M14.171 58.1214C10.5053 56.3916 7.76876 54.52 5.69347 52.3923C3.52685 50.201 1.91805 47.5026 1.00712 44.5321C-0.0101739 41.3354 0.030519 38.5608 0.061038 35.762C0.061038 35.3157 0.061038 34.8694 0.061038 34.4646V34.2501C1.01059e-07 24.3522 0 5.36239 0 5.3278V0H39.8984V5.33126C39.8984 5.37277 40.0544 26.94 39.9798 35.8796C39.9798 36.1944 39.9798 36.4366 39.9798 36.6857C39.9798 39.3669 39.9798 41.799 38.9625 44.8331C38.0126 47.7443 36.3901 50.3798 34.2321 52.5169C32.1805 54.5926 29.4847 56.4262 25.8902 58.1076V58.1214C24.0672 58.9062 22.1832 59.5346 20.2578 60C19.817 60 16.036 58.9863 14.1743 58.1214H14.171Z" fill="#19365E"/>
<path fill-rule="evenodd" clip-rule="evenodd" d="M15.5036 56.8762C16.0292 57.0837 16.5786 57.2671 17.1042 57.4366C17.7824 57.6615 18.5013 57.8691 19.2032 58.0559C19.505 58.1355 19.8814 58.2462 20.2205 58.305C20.5359 58.2323 20.8987 58.1216 21.1768 58.0386C21.8821 57.831 22.5874 57.6061 23.2792 57.364C23.6895 57.2187 24.0998 57.0699 24.5033 56.9073L25.212 56.5613C28.0537 55.2294 30.8445 53.5549 33.0859 51.3027C35.0515 49.3483 36.5284 46.941 37.3925 44.2832C38.264 41.6504 38.3182 39.4051 38.3216 36.672C38.3216 36.4022 38.3216 36.1289 38.3216 35.8556C38.386 27.8673 38.3216 13.3093 38.3216 5.32107V1.68848H1.6582V5.33144C1.6582 12.78 1.67516 26.7983 1.71924 34.2469V34.4441C1.71924 34.8869 1.71924 35.3263 1.71924 35.7656C1.68872 38.6613 1.71924 41.2041 2.58394 44.003C3.41482 46.7224 4.88382 49.1937 6.86338 51.2024C9.12856 53.5203 11.9499 55.2328 14.8627 56.5925L15.5036 56.8935V56.8762Z" fill="#FEFEFE"/>
<path d="M6.19236 17.5332H5.88378V18.0625H5.5752V16.734H5.88378V17.2461H6.19575V16.734H6.50772V18.0625H6.19575V17.5332H6.19236ZM7.36564 16.8136C7.42774 16.7798 7.49384 16.7542 7.56232 16.7375C7.64883 16.7157 7.73771 16.7053 7.82682 16.7064C7.88366 16.7003 7.94111 16.7078 7.99466 16.7282C8.0482 16.7486 8.09638 16.7814 8.13539 16.824C8.20171 16.9261 8.23274 17.0478 8.22356 17.1699C8.22356 17.253 8.22356 17.336 8.22356 17.4156V17.6543C8.22356 17.7304 8.22356 17.8031 8.22356 17.8757C8.22879 17.9449 8.2413 18.0133 8.26086 18.0798H8.00654L7.95906 17.9172C7.92966 17.9686 7.88905 18.0124 7.84038 18.0452C7.78269 18.079 7.71695 18.0958 7.65048 18.0937C7.60529 18.0959 7.56019 18.0877 7.51852 18.0697C7.47684 18.0518 7.43966 18.0245 7.40972 17.9899C7.34661 17.9112 7.3151 17.8111 7.32156 17.7096C7.31251 17.6417 7.32348 17.5725 7.35307 17.5109C7.38265 17.4493 7.42952 17.398 7.48771 17.3637C7.61936 17.2906 7.76898 17.2582 7.91837 17.2703C7.92815 17.1959 7.92119 17.1201 7.89803 17.0489C7.88452 17.0242 7.86397 17.0044 7.83912 16.9921C7.81428 16.9797 7.78632 16.9754 7.75899 16.9797C7.70434 16.9805 7.64987 16.9863 7.59623 16.997C7.54446 17.0091 7.49434 17.0277 7.44702 17.0523L7.36903 16.8136H7.36564ZM7.73865 17.81C7.77983 17.8123 7.82054 17.8001 7.85394 17.7754C7.88101 17.7541 7.90303 17.7269 7.91837 17.6958V17.4744H7.80308C7.7707 17.4772 7.73881 17.4842 7.70813 17.4951C7.68143 17.5077 7.65814 17.5267 7.64031 17.5505C7.6229 17.5783 7.61459 17.611 7.61657 17.6439C7.61268 17.6883 7.62473 17.7325 7.65048 17.7685C7.66082 17.7821 7.67424 17.793 7.68959 17.8002C7.70493 17.8075 7.72176 17.8108 7.73865 17.81ZM10.1463 18.3635H9.91906L9.88515 18.0625H9.0747V16.734H9.38667V17.7719H9.68169V16.734H9.99027V17.7719H10.1463V18.3635ZM11.5603 17.4848L11.5806 17.2668L11.4857 17.4951L11.1466 18.0625H10.9364V16.734H11.2483V17.336L11.2246 17.5436L11.3195 17.3256L11.6586 16.734H11.8689V18.0625H11.5603V17.4848ZM12.6827 17.3983C12.6683 17.2124 12.7161 17.027 12.8184 16.8724C12.8634 16.8155 12.921 16.7702 12.9864 16.7402C13.0517 16.7101 13.1231 16.6962 13.1948 16.6994C13.2685 16.694 13.3423 16.7073 13.4098 16.7381C13.4772 16.7689 13.5362 16.8162 13.5813 16.8759C13.6786 17.0312 13.7238 17.2145 13.7102 17.3983C13.7252 17.5842 13.6773 17.7698 13.5745 17.9241C13.5291 17.9815 13.471 18.0271 13.405 18.0572C13.339 18.0872 13.2669 18.1009 13.1948 18.0971C12.8557 18.0971 12.6827 17.8653 12.6827 17.4052V17.3983ZM13.0015 17.3983C12.9984 17.5028 13.0133 17.607 13.0456 17.7062C13.0556 17.7384 13.0756 17.7665 13.1024 17.7865C13.1292 17.8064 13.1616 17.817 13.1948 17.8169C13.2261 17.8171 13.2569 17.8081 13.2834 17.7909C13.3098 17.7738 13.3309 17.7491 13.344 17.72C13.3818 17.6174 13.398 17.5077 13.3914 17.3983C13.3948 17.2927 13.3799 17.1873 13.3473 17.0869C13.3354 17.057 13.3149 17.0315 13.2887 17.0135C13.2624 16.9955 13.2315 16.9859 13.1998 16.9859C13.1682 16.9859 13.1373 16.9955 13.111 17.0135C13.0847 17.0315 13.0643 17.057 13.0523 17.0869C13.0112 17.1887 12.9938 17.2988 13.0015 17.4087V17.3983ZM15.148 17.5332H14.836V18.0625H14.524V16.734H14.836V17.2461H15.148V16.734H15.4565V18.0625H15.148V17.5332ZM16.3212 16.8136C16.3819 16.7791 16.4469 16.7535 16.5145 16.7375C16.6022 16.7155 16.6922 16.705 16.7824 16.7064C16.8387 16.7006 16.8956 16.7082 16.9486 16.7286C17.0015 16.749 17.0491 16.7816 17.0876 16.824C17.1557 16.9253 17.1869 17.0477 17.1758 17.1699C17.1758 17.253 17.1758 17.336 17.1758 17.4156C17.1758 17.4951 17.1758 17.5747 17.1758 17.6543C17.1707 17.728 17.1707 17.802 17.1758 17.8757C17.1782 17.945 17.1896 18.0136 17.2097 18.0798H16.9588L16.9079 17.9172C16.8774 17.9728 16.8324 18.0186 16.7779 18.0497C16.7235 18.0809 16.6617 18.0961 16.5993 18.0937C16.5541 18.0959 16.509 18.0877 16.4673 18.0697C16.4257 18.0518 16.3885 18.0245 16.3585 17.9899C16.2969 17.9104 16.2656 17.8109 16.2704 17.7096C16.2613 17.6417 16.2723 17.5725 16.3019 17.5109C16.3315 17.4493 16.3783 17.398 16.4365 17.3637C16.575 17.2894 16.7321 17.2592 16.8875 17.2772C16.8973 17.2028 16.8904 17.1271 16.8672 17.0558C16.8469 17.0073 16.7994 16.9866 16.7282 16.9866C16.6735 16.9876 16.6191 16.9934 16.5654 17.0039C16.5145 17.0154 16.4655 17.034 16.4196 17.0592L16.3416 16.8205L16.3212 16.8136ZM16.6909 17.81C16.7321 17.8129 16.773 17.8006 16.8062 17.7754C16.8332 17.7541 16.8552 17.7269 16.8706 17.6958V17.4744H16.7587C16.7252 17.4769 16.6921 17.4839 16.6603 17.4951C16.634 17.5067 16.6116 17.526 16.5959 17.5505C16.5775 17.578 16.568 17.6106 16.5688 17.6439C16.5666 17.6881 16.5785 17.7318 16.6027 17.7685C16.613 17.7821 16.6265 17.793 16.6418 17.8002C16.6572 17.8075 16.674 17.8108 16.6909 17.81ZM18.6237 17.0246H18.4304C18.4304 17.1769 18.4304 17.3187 18.3999 17.4502C18.3911 17.567 18.3718 17.6828 18.3423 17.7961C18.324 17.876 18.2881 17.9506 18.2372 18.0141C18.216 18.0397 18.1894 18.0601 18.1595 18.0738C18.1296 18.0876 18.097 18.0944 18.0642 18.0937C18.027 18.0977 17.9895 18.0977 17.9523 18.0937C17.9238 18.0875 17.8964 18.077 17.8709 18.0625L17.9082 17.7858C17.9247 17.7935 17.9426 17.7975 17.9608 17.7975C17.9789 17.7975 17.9969 17.7935 18.0134 17.7858C18.0439 17.7858 18.0676 17.7269 18.0846 17.6543C18.1092 17.5498 18.1251 17.4433 18.132 17.336C18.132 17.1942 18.132 16.99 18.1558 16.7617H18.9255V18.0902H18.617V17.0523L18.6237 17.0246ZM20.1022 17.7823C20.1397 17.7934 20.1785 17.7992 20.2175 17.7996C20.2652 17.8039 20.3127 17.789 20.3497 17.7581C20.3807 17.7166 20.3953 17.6647 20.3904 17.6128C20.393 17.5632 20.3786 17.5143 20.3497 17.4744C20.3335 17.4577 20.3138 17.445 20.2921 17.4372C20.2703 17.4294 20.2472 17.4268 20.2243 17.4294C20.1839 17.4219 20.1426 17.4219 20.1022 17.4294V17.7754V17.7823ZM20.1022 17.208C20.1383 17.2046 20.1746 17.2046 20.2107 17.208H20.3091C20.3726 17.2065 20.4358 17.217 20.4956 17.2391C20.5432 17.258 20.5861 17.2875 20.621 17.3256C20.6521 17.3643 20.6752 17.409 20.6888 17.4571C20.7027 17.5101 20.7095 17.5648 20.7092 17.6197C20.7099 17.691 20.7008 17.762 20.6821 17.8307C20.6654 17.8888 20.6341 17.9415 20.5912 17.9834C20.5484 18.0252 20.4955 18.0549 20.4379 18.0694C20.3584 18.0917 20.2762 18.1022 20.1938 18.1006H19.9632H19.7936V16.734H20.1022V17.208ZM22.1368 17.5332H21.8214V18.0625H21.5095V16.734H21.8214V17.2461H22.1334V16.734H22.442V18.0625H22.1334V17.5332H22.1368ZM23.6153 17.7823C23.6517 17.7931 23.6893 17.7989 23.7272 17.7996C23.749 17.8022 23.7712 17.7995 23.7918 17.7917C23.8125 17.7839 23.831 17.7712 23.8459 17.7546C23.8745 17.7121 23.8877 17.6607 23.8832 17.6093C23.8857 17.5619 23.8738 17.5148 23.8493 17.4744C23.8344 17.4578 23.8159 17.4451 23.7952 17.4373C23.7746 17.4295 23.7524 17.4268 23.7306 17.4294C23.6923 17.4241 23.6535 17.4241 23.6153 17.4294V17.7754V17.7823ZM23.6153 17.208C23.6514 17.2046 23.6877 17.2046 23.7238 17.208H23.8221C23.8835 17.2061 23.9446 17.2167 24.0018 17.2391C24.0477 17.2578 24.0884 17.2874 24.1205 17.3256C24.1482 17.3655 24.1689 17.41 24.1816 17.4571C24.1954 17.5101 24.2023 17.5648 24.2019 17.6197C24.2043 17.6911 24.1951 17.7624 24.1748 17.8307C24.1603 17.8873 24.131 17.9387 24.09 17.9795C24.0469 18.0232 23.993 18.0543 23.934 18.0694C23.8558 18.0923 23.7746 18.1028 23.6933 18.1006H23.4762H23.3067V16.734H23.6153V17.208ZM24.3138 16.734H24.6224V18.0625H24.3138V16.734ZM26.1212 17.4848L26.145 17.2668L26.05 17.4951L25.7109 18.0625H25.5041V16.734H25.8126V17.336L25.7889 17.5436L25.8838 17.3256L26.2229 16.734H26.4298V18.0625H26.1212V17.4848ZM25.8533 16.1943C25.855 16.2459 25.8702 16.2961 25.8974 16.3396C25.9066 16.3539 25.9193 16.3655 25.9341 16.3733C25.9489 16.3812 25.9655 16.3851 25.9822 16.3846C25.9994 16.3854 26.0165 16.3816 26.032 16.3737C26.0474 16.3659 26.0606 16.3541 26.0704 16.3396C26.0971 16.2959 26.1123 16.2458 26.1144 16.1943L26.3484 16.2531C26.3447 16.3043 26.3312 16.3541 26.3085 16.3999C26.2857 16.4456 26.2544 16.4863 26.2162 16.5195C26.1478 16.5749 26.0627 16.6042 25.9754 16.6026C25.9294 16.6027 25.8837 16.5957 25.8398 16.5818C25.7977 16.5707 25.7584 16.5507 25.7245 16.523C25.6882 16.4938 25.6582 16.4573 25.6363 16.4158C25.6113 16.3638 25.5963 16.3074 25.5922 16.2497L25.8533 16.1943ZM28.9697 17.0246H28.6679V18.0625H28.3593V16.734H29.2816V18.0625H28.9425V17.0246H28.9697ZM30.1429 16.8136C30.2036 16.7791 30.2686 16.7535 30.3362 16.7375C30.4239 16.7159 30.5139 16.7055 30.6041 16.7064C30.6609 16.7006 30.7183 16.7081 30.7718 16.7285C30.8253 16.7489 30.8735 16.7816 30.9127 16.824C30.9778 16.9265 31.0076 17.0482 30.9975 17.1699C30.9975 17.253 30.9975 17.336 30.9975 17.4156C30.9975 17.4951 30.9975 17.5747 30.9975 17.6543C30.9975 17.7339 30.9975 17.8031 30.9975 17.8757C31.0016 17.9448 31.013 18.0132 31.0314 18.0798H30.7804L30.7296 17.9172C30.7024 17.9692 30.6628 18.0133 30.6143 18.0452C30.5565 18.0787 30.4908 18.0954 30.4244 18.0937C30.3787 18.0959 30.3331 18.0878 30.2909 18.0698C30.2486 18.0519 30.2108 18.0246 30.1802 17.9899C30.1186 17.9104 30.0872 17.8109 30.0921 17.7096C30.0856 17.6419 30.0977 17.5737 30.127 17.5126C30.1564 17.4515 30.2018 17.3999 30.2582 17.3637C30.3967 17.2894 30.5538 17.2592 30.7092 17.2772C30.7225 17.2029 30.7154 17.1263 30.6889 17.0558C30.6685 17.0073 30.6211 16.9866 30.5499 16.9866C30.4963 16.9874 30.443 16.9932 30.3905 17.0039C30.3385 17.0154 30.2884 17.0341 30.2413 17.0592L30.1633 16.8205L30.1429 16.8136ZM30.5159 17.81C30.5562 17.813 30.596 17.8007 30.6278 17.7754C30.6559 17.7543 30.6791 17.7271 30.6957 17.6958V17.4744H30.5804C30.5469 17.4773 30.5139 17.4842 30.482 17.4951C30.4563 17.5076 30.4341 17.5267 30.4176 17.5505C30.4002 17.5783 30.3919 17.611 30.3939 17.6439C30.3909 17.6877 30.4016 17.7313 30.4244 17.7685C30.4354 17.7822 30.4495 17.793 30.4654 17.8003C30.4812 17.8075 30.4986 17.8108 30.5159 17.81ZM31.852 16.734H32.0826L32.1165 16.8863C32.1498 16.8305 32.195 16.7832 32.2487 16.7479C32.3044 16.7155 32.3679 16.6999 32.4319 16.7029C32.4902 16.6999 32.5484 16.7123 32.6007 16.739C32.653 16.7656 32.6976 16.8057 32.7303 16.8551C32.8099 17.0117 32.8451 17.1878 32.832 17.3637C32.844 17.5545 32.8003 17.7447 32.7065 17.9103C32.6676 17.9715 32.6136 18.0213 32.5499 18.0547C32.4863 18.0881 32.4152 18.1039 32.3437 18.1006C32.3088 18.1045 32.2735 18.1045 32.2386 18.1006C32.209 18.0927 32.1805 18.081 32.1538 18.066V18.6022H31.8452V16.734H31.852ZM32.1606 17.7719C32.1774 17.7897 32.1984 17.8028 32.2216 17.81C32.2495 17.8164 32.2785 17.8164 32.3064 17.81C32.3396 17.8105 32.3722 17.801 32.4 17.7825C32.4278 17.764 32.4495 17.7374 32.4624 17.7062C32.5065 17.5966 32.5262 17.4785 32.52 17.3602C32.5245 17.2647 32.5095 17.1693 32.4759 17.08C32.4655 17.0521 32.4468 17.0281 32.4226 17.0114C32.3983 16.9947 32.3696 16.986 32.3403 16.9866C32.2521 16.9866 32.1945 17.0385 32.1606 17.1457V17.7685V17.7719ZM34.0324 17.5194H33.9612V18.0694H33.6526V16.734H33.9612V17.298L34.0256 17.2599L34.2426 16.7306H34.5817L34.3478 17.2426L34.2325 17.3429L34.3579 17.4467L34.619 18.0591H34.2799L34.029 17.5124L34.0324 17.5194Z" fill="#19365E"/>
<path d="M5.93122 3.7712C6.14634 3.72826 6.36374 3.69823 6.5823 3.68125C6.81967 3.65703 7.05364 3.64665 7.28762 3.64665C7.53304 3.64677 7.77803 3.66759 8.02008 3.70893C8.2595 3.74361 8.48992 3.82588 8.69828 3.9511C8.89685 4.07824 9.06212 4.25279 9.1798 4.45966C9.31335 4.72201 9.37763 5.01533 9.3663 5.31073C9.37452 5.58648 9.31875 5.86031 9.20353 6.1099C9.10148 6.31754 8.95555 6.4995 8.77627 6.64268C8.59509 6.78239 8.3889 6.88464 8.16928 6.94366C7.93921 7.00624 7.70206 7.03765 7.46395 7.03707H7.18928H7.02312C6.98478 7.0407 6.94618 7.0407 6.90783 7.03707V8.76688H5.93122V3.7712ZM7.36561 4.49772C7.27067 4.49772 7.1825 4.49772 7.09773 4.49772C7.02953 4.50203 6.96161 4.51011 6.89427 4.52194V6.14795H6.97904C7.01634 6.14795 7.05703 6.14795 7.09773 6.14795H7.30797C7.43423 6.1486 7.56026 6.13702 7.68437 6.11336C7.80459 6.09201 7.91969 6.04738 8.02347 5.98189C8.12348 5.91363 8.2051 5.82084 8.26084 5.71204C8.32435 5.57124 8.35455 5.41718 8.349 5.26229C8.34585 5.13789 8.31451 5.01593 8.25745 4.90595C8.20343 4.80695 8.12806 4.72177 8.03703 4.65686C7.94119 4.59344 7.83402 4.54994 7.72167 4.52885C7.60444 4.50502 7.48514 4.49342 7.36561 4.49426V4.49772ZM11.7027 5.93692L11.8417 6.57348H11.8858L11.9875 5.9127L12.7234 3.71931H13.7136L12.408 7.17891C12.3063 7.45222 12.2046 7.68748 12.1096 7.88813C12.0287 8.06731 11.9249 8.23481 11.801 8.38632C11.7001 8.5104 11.574 8.61072 11.4314 8.68039C11.2817 8.74669 11.1199 8.77971 10.9567 8.77725C10.8303 8.78077 10.704 8.76916 10.5803 8.74266C10.4691 8.71564 10.3635 8.66879 10.2683 8.60427L10.5125 7.80856C10.5798 7.84753 10.6532 7.87445 10.7295 7.88813C10.7995 7.89352 10.8697 7.89352 10.9397 7.88813C11.1601 7.88813 11.3161 7.71169 11.4043 7.35881L9.57654 3.71931H10.7057L11.7027 5.93346V5.93692ZM17.4301 8.52816C17.2581 8.64885 17.0626 8.73027 16.857 8.76688C16.6223 8.81283 16.3839 8.836 16.1449 8.83607C15.8601 8.83825 15.5769 8.79146 15.3073 8.69768C15.043 8.60424 14.8038 8.44904 14.6088 8.24447C14.3927 8.01469 14.2284 7.7396 14.1273 7.43839C13.999 7.04845 13.9382 6.63872 13.9475 6.22752C13.9356 5.80652 14.0036 5.38714 14.1476 4.99244C14.2616 4.68977 14.4386 4.41593 14.6664 4.18981C14.8698 3.99252 15.1128 3.84261 15.3785 3.75044C15.6324 3.66504 15.8979 3.62068 16.1652 3.61898C16.4039 3.61583 16.6423 3.63552 16.8773 3.67779C17.0417 3.7068 17.203 3.75199 17.3589 3.81272L17.169 4.64302C17.0483 4.58672 16.9205 4.54828 16.7892 4.52885C16.6106 4.50323 16.4303 4.49167 16.25 4.49426C16.0728 4.48716 15.8963 4.52149 15.7341 4.59465C15.5719 4.6678 15.4282 4.77783 15.3141 4.91633C15.0532 5.29901 14.9331 5.76335 14.975 6.22752C14.9684 6.45999 14.99 6.6924 15.0394 6.91944C15.0898 7.11591 15.1773 7.30043 15.2971 7.4626C15.4109 7.61057 15.5573 7.72909 15.7244 7.80856C15.9098 7.89768 16.113 7.94151 16.3178 7.93657C16.4974 7.9393 16.6765 7.91719 16.8502 7.87084C16.984 7.83438 17.1119 7.77845 17.23 7.70478L17.4267 8.5074L17.4301 8.52816ZM21.3806 8.52816C21.2095 8.64821 21.0153 8.72959 20.8109 8.76688C20.575 8.81266 20.3355 8.83582 20.0954 8.83607C19.8106 8.83825 19.5274 8.79146 19.2578 8.69768C18.9935 8.60424 18.7543 8.44904 18.5593 8.24447C18.3489 8.01145 18.1894 7.73552 18.0913 7.43493C17.9588 7.04692 17.8934 6.63838 17.898 6.22752C17.884 5.80697 17.9496 5.38761 18.0913 4.99244C18.2064 4.6895 18.3846 4.41566 18.6135 4.18981C18.8159 3.99116 19.0592 3.84106 19.3256 3.75044C19.5794 3.66447 19.845 3.6201 20.1124 3.61898C20.351 3.61615 20.5894 3.63584 20.8245 3.67779C20.9887 3.70774 21.1498 3.7529 21.306 3.81272L21.1161 4.64302C20.9941 4.58722 20.8652 4.54881 20.7329 4.52885C20.5543 4.50311 20.3741 4.49154 20.1937 4.49426C20.0166 4.48741 19.8402 4.52187 19.678 4.59501C19.5158 4.66814 19.3721 4.77803 19.2578 4.91633C18.997 5.29901 18.8769 5.76335 18.9187 6.22752C18.9188 6.46086 18.9473 6.69328 19.0035 6.91944C19.0539 7.11591 19.1414 7.30043 19.2612 7.4626C19.3758 7.60976 19.522 7.72812 19.6885 7.80856C19.874 7.89732 20.0771 7.94113 20.2819 7.93657C20.4573 7.94424 20.6329 7.92795 20.8041 7.88813C20.9381 7.85234 21.0661 7.79637 21.1839 7.72207L21.3806 8.5247V8.52816ZM23.4525 6.59424H23.1982V8.73574H22.2385V3.71931H23.1982V5.94037L23.422 5.84005L24.7784 3.71931H25.8906L24.4596 5.82621L24.0798 6.09606L24.4732 6.37629L26.1076 8.73228H24.9208L23.4694 6.59078L23.4525 6.59424ZM29.1493 7.63212H27.6404L27.2707 8.74266H26.3077L28.0778 3.69509H28.7865L30.5566 8.74266H29.5393L29.1493 7.61137V7.63212ZM27.8879 6.84679H28.9425L28.5797 5.72934L28.4305 4.94055H28.3965L28.2473 5.73626L27.9082 6.84679H27.8879ZM34.4562 8.74266H33.4966V6.74992L32.9913 6.88485L31.974 8.73228H30.8584L31.8757 7.06475L32.2962 6.75684C32.1421 6.71861 31.9947 6.65679 31.8588 6.57348C31.7292 6.49293 31.6144 6.3899 31.5197 6.26904C31.4172 6.13755 31.3381 5.98887 31.2857 5.82967C31.229 5.64264 31.2015 5.44766 31.2043 5.25191C31.196 4.99063 31.2483 4.73103 31.3569 4.49426C31.4557 4.29399 31.6027 4.12258 31.7842 3.99607C31.9826 3.86197 32.205 3.7691 32.4386 3.72277C32.7085 3.66568 32.9836 3.63785 33.2592 3.63974H33.5339L33.8527 3.66395C33.9646 3.66395 34.0697 3.68471 34.1748 3.69855C34.271 3.71111 34.3662 3.73076 34.4596 3.75736V8.73228L34.4562 8.74266ZM33.1372 4.53231C33.0165 4.53132 32.8961 4.54291 32.7777 4.56691C32.6739 4.5881 32.5749 4.62919 32.4861 4.688C32.3997 4.74883 32.3297 4.83094 32.2826 4.92671C32.2308 5.0488 32.2064 5.18122 32.2114 5.31419C32.2084 5.44218 32.2315 5.56942 32.2792 5.68782C32.3244 5.78664 32.3918 5.87317 32.4759 5.94037C32.5645 6.00562 32.6647 6.05262 32.7709 6.07876C32.8908 6.10838 33.0138 6.12348 33.1372 6.12373H33.4966V4.56691L33.3508 4.53231C33.2842 4.52813 33.2173 4.52813 33.1507 4.53231H33.1372ZM8.35578 14.0393H6.84679L6.47378 15.1499H5.51074L7.28084 10.0988H7.98956L9.75965 15.1499H8.74236L8.349 14.0393H8.35578ZM7.09094 13.2505H8.14554L7.77931 12.1331L7.6335 11.3443H7.5962L7.45039 12.14L7.09094 13.2505ZM10.1801 10.1853C10.3955 10.1441 10.6128 10.114 10.8312 10.0954C11.0652 10.0746 11.3026 10.0642 11.5365 10.0642C11.7819 10.0633 12.0268 10.083 12.269 10.123C12.5089 10.1579 12.7395 10.2414 12.9472 10.3687C13.1469 10.4933 13.3116 10.6685 13.4253 10.8772C13.5609 11.1376 13.6253 11.4304 13.6118 11.7248C13.6194 12.0002 13.5648 12.2736 13.4524 12.524C13.3464 12.735 13.193 12.9176 13.0048 13.0568C12.824 13.1971 12.6177 13.2994 12.3978 13.3578C12.1678 13.4204 11.9306 13.4518 11.6925 13.4512H11.4179H11.2551H11.1398V15.181H10.1801V10.1853ZM11.6111 10.9084C11.5207 10.9084 11.4325 10.9084 11.3466 10.9084C11.2784 10.9127 11.2105 10.9208 11.1432 10.9326V12.5586C11.1713 12.562 11.1998 12.562 11.228 12.5586C11.2674 12.5623 11.3072 12.5623 11.3466 12.5586H11.5569C11.6831 12.559 11.8091 12.5474 11.9333 12.524C12.0533 12.502 12.1683 12.4574 12.2724 12.3925C12.3724 12.3253 12.4531 12.2321 12.5064 12.1227C12.5718 11.9825 12.6021 11.828 12.5945 11.6729C12.6002 11.5373 12.5709 11.4026 12.5097 11.282C12.4574 11.1818 12.3817 11.0962 12.2893 11.0329C12.194 10.9709 12.0882 10.9275 11.9774 10.9049C11.859 10.8812 11.7386 10.8696 11.6179 10.8703L11.6111 10.9084ZM15.409 13.0049H15.1581V15.1499H14.1951V10.1334H15.1581V12.3545L15.3819 12.2542L16.7383 10.1334H17.8336L16.3958 12.2403L16.0194 12.5136L16.4128 12.7904L18.0472 15.1499H16.8604L15.4057 13.0049H15.409ZM21.6519 11.0087H20.2209V15.1602H19.2578V11.0087H17.82V10.1334H21.6519V11.0087ZM25.0157 12.3683L25.07 11.7179H25.0361L24.697 12.3891L22.8624 15.1568H22.1605V10.1334H23.1236V12.8631L23.0523 13.555H23.093L23.4321 12.8631L25.2633 10.1542H25.9788V15.1706H25.0191V12.4029L25.0157 12.3683ZM28.0405 13.0049H27.7862V15.1499H26.8265V10.1334H27.7862V12.3545L28.0134 12.2542L29.3698 10.1334H30.4651L29.0341 12.2403L28.6543 12.5136L29.0476 12.7904L30.6821 15.1499H29.4986L28.0439 13.0049H28.0405ZM33.4661 14.0428H31.9537L31.5841 15.1533H30.638L32.4081 10.1023H33.1168L34.8869 15.1533H33.8696L33.4796 14.0428H33.4661ZM32.2012 13.254H33.2525L32.8896 12.1365L32.7404 11.3477H32.7065L32.5573 12.1435L32.2012 13.254Z" fill="#19365E"/>
<mask id="mask0" mask-type="alpha" maskUnits="userSpaceOnUse" x="6" y="20" width="28" height="35">
<path d="M33.9664 36.9262C33.9664 29.9454 33.8612 20 33.8612 20H19.974H6.13948C6.13948 20 6.03427 29.9454 6.03427 36.9262C6.03427 36.9262 5.40304 44.2896 9.55866 48.306C13.6617 52.2268 19.1324 54.6653 19.974 55C20.8157 54.6175 26.2864 52.179 30.3894 48.2582C34.5976 44.2418 33.9664 36.9262 33.9664 36.9262Z" fill="black"/>
</mask>
<g mask="url(#mask0)">
<rect width="15.4853" height="37.1564" transform="matrix(0.824139 0.566387 -0.580622 0.814173 20.0142 11.0469)" fill="url(#paint0_linear)"/>
<rect width="10.5763" height="48.9899" transform="matrix(0.824139 0.566387 -0.580622 0.814173 15.876 -0.998535)" fill="url(#paint1_linear)"/>
<rect width="8.51358" height="56.9616" transform="matrix(0.824139 0.566387 -0.580622 0.814173 34.0332 16.2432)" fill="url(#paint2_linear)"/>
<rect width="10.1045" height="48.5051" transform="matrix(0.824139 0.566387 -0.580622 0.814173 36.4297 25.1538)" fill="url(#paint3_linear)"/>
</g>
<path fill-rule="evenodd" clip-rule="evenodd" d="M28.9526 33.0291C28.7641 32.9671 28.5745 32.9098 28.3775 32.9095C26.1375 32.9095 25.9514 34.537 24.566 35.8891C24.4053 36.0466 24.2378 36.2032 24.0636 36.3589L24.0564 36.3383L24.0456 36.346C23.9614 36.4042 23.877 36.4615 23.7932 36.5197C23.1381 36.231 21.8725 36.3766 21.4042 36.9924C21.3149 37.1104 21.8967 37.1487 21.9394 37.1509C22.1227 37.1663 22.5599 37.3307 22.6314 37.5055L22.6083 37.5383C21.2979 38.5024 19.8541 39.3245 18.5815 39.7775C15.5598 40.8537 11.4415 41.057 9.50892 39.1637C9.17883 38.8399 8.87458 38.5454 9.16707 38.0853C9.4125 37.7004 9.81294 37.4869 10.2404 37.3434C10.7612 37.1677 11.3213 37.054 11.6659 36.6111C11.7939 36.4463 11.8599 36.245 11.8966 35.9559C11.8142 35.9944 11.7482 36.0177 11.689 36.0537C11.4484 36.2016 11.1893 36.2575 10.9176 36.1719C9.73843 35.8017 9.1184 35.4445 7.85134 35.9987C7.55978 36.1262 7.3072 36.286 7.16511 36.4678C7.05323 36.4126 6.93974 36.3596 6.82464 36.3105C6.56076 36.1973 6.28027 36.1746 5.9977 36.1787C5.76129 36.1837 5.52633 36.2165 5.29785 36.2763C4.92186 36.3712 4.56894 36.5149 4.2617 36.7427C4.08777 36.8708 3.95375 37.0506 3.79828 37.2039C3.55401 37.4446 3.29543 37.7373 2.9951 37.9146C2.67978 38.1005 2.48233 38.0842 2.15755 38.0516C2.10249 38.0476 2.0475 38.0602 2 38.0878C2.28972 38.5692 3.00433 38.6783 3.53348 38.7263C3.79519 38.7511 4.05844 38.7565 4.32098 38.7424C4.7228 38.7181 5.12324 38.6627 5.52483 38.6321C6.01984 38.5945 6.57944 38.5144 7.0154 38.8064C7.29059 38.9905 7.44099 39.2731 7.53764 39.5989C9.87407 47.5398 18.68 49.7012 24.6718 45.7992C24.6275 46.06 24.6241 46.3259 24.6617 46.5878C24.7078 46.9102 24.7936 47.2274 24.8305 47.55C24.8642 47.8477 24.8375 48.1403 24.7002 48.4086C24.5913 48.6205 24.5554 48.7541 24.3593 48.8883C24.3514 48.8933 24.3438 48.8994 24.3362 48.9049C24.3376 48.9191 24.3419 48.9329 24.3488 48.9454C24.3558 48.9579 24.3653 48.9689 24.3767 48.9777C24.3882 48.9865 24.4013 48.9929 24.4154 48.9965C24.4294 49.0002 24.4441 49.001 24.4585 48.9988C25.4504 48.7914 26.0849 47.9886 26.5345 47.1719C27.0609 46.2144 26.8085 45.359 26.5954 44.3782L26.5691 44.2584C27.388 43.4375 28.1123 42.4675 28.7076 41.3475C29.6287 39.6141 30.2468 38.007 30.7695 36.1239C30.9525 35.4632 31.059 34.8463 30.7767 34.235C30.6224 33.9001 30.3753 33.6669 30.0847 33.491C30.1458 33.3712 30.245 33.2344 30.4212 33.052C30.6941 32.768 30.7176 32.5901 30.8258 32.2009C30.8807 31.9627 31.0417 31.729 31.2283 31.5608C31.3829 31.4222 31.432 30.9586 31.4853 30.7758C31.564 30.5066 31.8082 30.3457 31.9762 30.1419C32.1803 29.8928 32.1635 29.5985 32.2735 29.3331C32.3805 29.0784 32.5734 28.9326 32.715 28.7279C32.8114 28.588 32.8709 28.4019 32.9099 28.2072C33.0121 27.698 33.3191 27.7596 33.5558 27.3138C33.6169 27.1992 33.7159 26.8299 33.7516 26.6959C33.819 26.4448 33.8651 26.3336 34.1343 26.1299C34.4381 25.9007 34.4026 25.5412 34.5209 25.209C34.6385 24.881 34.6849 24.9935 34.8392 24.6924C34.9179 24.54 34.9668 24.3745 34.9834 24.2045C35.0064 23.9846 35.1312 23.6126 35.2659 23.4559C35.4671 23.2225 35.5741 23.1163 35.713 22.8471C35.7951 22.6873 35.8514 22.5143 35.9187 22.3465C35.9482 22.2747 35.9738 22.2015 35.9955 22.1271C36.0154 22.0592 35.9658 22.0139 35.9107 22.001C35.8823 21.9938 35.8295 22.0266 35.8073 22.0556C35.6396 22.2772 35.4895 22.5616 35.3061 22.7742C35.1375 22.9687 34.9515 23.1016 34.8334 23.3328C34.7513 23.4942 34.6987 23.6973 34.6473 23.8395C34.5818 24.0206 34.5691 24.1316 34.4858 24.3018C34.4026 24.4721 34.2284 24.6224 34.1597 24.7755C34.042 25.0411 34.1043 25.2555 33.9131 25.509C33.7902 25.6696 33.6554 25.821 33.5096 25.9619C33.3551 26.1145 33.2391 26.3096 33.2211 26.5383C33.2024 26.784 33.1157 26.9296 32.9673 27.1227C32.9007 27.2101 32.733 27.3749 32.6499 27.4469C32.4476 27.6231 32.4193 27.8397 32.3402 28.084C32.2624 28.3227 32.1808 28.4986 31.9621 28.6501C31.8431 28.7327 31.71 28.9768 31.668 29.1565C31.5757 29.5482 31.5065 29.6621 31.2413 29.9243C31.1162 30.0484 30.9788 30.1983 30.8913 30.402C30.7898 30.6384 30.7799 31.1213 30.5767 31.2753C30.0231 31.6942 30.1024 31.7976 30.0139 32.3247C29.9495 32.5102 29.7511 32.5819 29.6298 32.706C29.4986 32.84 29.4605 33.0126 29.4051 33.1801C29.2534 33.1253 29.1009 33.076 28.9514 33.0271L28.9526 33.0291ZM29.5719 36.056C29.4497 36.5976 29.2404 37.3126 28.8264 37.2621C28.688 37.2449 28.5194 37.0536 28.4612 36.9025C28.2566 36.3718 28.4799 36.0195 29.061 35.6598C29.2866 35.5223 29.6868 35.5495 29.5731 36.058L29.5719 36.056Z" fill="#002E59"/>
<defs>
<linearGradient id="paint0_linear" x1="-9.24485" y1="3.21364" x2="18.9141" y2="33.1153" gradientUnits="userSpaceOnUse">
<stop stop-color="#C8E2E3"/>
<stop offset="0.321397" stop-color="#D4F0F1"/>
<stop offset="0.480157" stop-color="#97CBCE"/>
<stop offset="1" stop-color="#5484A5"/>
</linearGradient>
<linearGradient id="paint1_linear" x1="0.619675" y1="1.18702" x2="21.6314" y2="38.5916" gradientUnits="userSpaceOnUse">
<stop stop-color="#D9F2F3"/>
<stop offset="0.63175" stop-color="#97CBCE"/>
<stop offset="1" stop-color="#5484A5"/>
</linearGradient>
<linearGradient id="paint2_linear" x1="0.669451" y1="3.45476" x2="31.3671" y2="35.4467" gradientUnits="userSpaceOnUse">
<stop stop-color="#ECFBFC"/>
<stop offset="0.181794" stop-color="#E1F8FA"/>
<stop offset="0.480157" stop-color="#97CBCE"/>
<stop offset="1" stop-color="#5484A5"/>
</linearGradient>
<linearGradient id="paint3_linear" x1="0.592032" y1="1.17527" x2="21.7757" y2="37.5638" gradientUnits="userSpaceOnUse">
<stop stop-color="#E9FEFF"/>
<stop offset="0.306491" stop-color="#ECFEFF"/>
<stop offset="0.692235" stop-color="#97CBCE"/>
<stop offset="0.970417" stop-color="#5484A5"/>
</linearGradient>
</defs>
</svg>
