<svg width="20" height="12" viewBox="0 0 20 12" fill="none" xmlns="http://www.w3.org/2000/svg">
<path fill-rule="evenodd" clip-rule="evenodd" d="M9.81537 11.9246H11.028C11.028 11.9246 11.3918 11.8611 11.5736 11.6708C11.7555 11.4806 11.7555 11.1 11.7555 11.1C11.7555 11.1 11.7555 9.45085 12.4831 9.19714C13.2107 8.94342 14.1807 10.8463 15.1508 11.544C15.8784 12.1148 16.4241 11.988 16.4241 11.988L19.0918 11.9246C19.0918 11.9246 20.4863 11.8611 19.8194 10.656C19.7587 10.5926 19.4556 9.83142 17.8186 8.24571C16.1209 6.59657 16.3634 6.91371 18.3642 4.05942C19.5768 2.34685 20.0619 1.332 19.9406 0.82457C19.8194 0.380571 18.9099 0.507428 18.9099 0.507428H15.8784C15.8784 0.507428 15.6359 0.443999 15.5146 0.570856C15.3327 0.697713 15.2721 0.887999 15.2721 0.887999C15.2721 0.887999 14.787 2.22 14.1807 3.36171C12.8469 5.70857 12.3012 5.83542 12.1193 5.70857C11.6343 5.39142 11.7555 4.31314 11.7555 3.61542C11.7555 1.332 12.1193 0.38057 11.0886 0.126856C10.7855 0.0634278 10.5429 0 9.69411 0C8.60276 0 7.69331 -2.45741e-07 7.20826 0.253714C6.84448 0.443999 6.60196 0.82457 6.78385 0.82457C6.96574 0.82457 7.45079 0.951428 7.69331 1.26857C7.93583 1.83943 7.93583 2.79085 7.93583 2.79085C7.93583 2.79085 8.11772 5.51828 7.51142 5.83542C7.087 6.08914 6.54133 5.58171 5.32873 3.42514C4.72242 2.34685 4.23738 1.07828 4.23738 1.07828C4.23738 1.07828 4.17675 0.824571 3.99486 0.697714C3.81297 0.570857 3.50982 0.507428 3.50982 0.507428H0.660196C0.660196 0.507428 0.235784 0.507428 0.0538936 0.697714C-0.067367 0.888 0.0538936 1.20514 0.0538936 1.20514C0.0538936 1.20514 2.29721 6.65999 4.84368 9.45085C7.20827 12.1148 9.81537 11.9246 9.81537 11.9246Z" fill="white"/>
</svg>
