<svg width="20" height="20" viewBox="0 0 20 20" fill="none" xmlns="http://www.w3.org/2000/svg">
<path d="M12.7395 13.8839V16.2388C12.7395 16.7374 12.5641 16.9866 12.2132 16.9866C12.0063 16.9866 11.8039 16.9048 11.6059 16.7411V13.3817C11.8039 13.218 12.0063 13.1362 12.2132 13.1362C12.5641 13.1362 12.7395 13.3854 12.7395 13.8839ZM17.3009 13.8951V14.4085H16.0864V13.8951C16.0864 13.3891 16.2888 13.1362 16.6937 13.1362C17.0985 13.1362 17.3009 13.3891 17.3009 13.8951ZM4.26451 11.4621H5.7085V10.4129H1.49798V11.4621H2.91498V17.8125H4.26451V11.4621ZM8.15115 17.8125H9.35223V12.2991H8.15115V16.5179C7.88124 16.8304 7.62483 16.9866 7.38192 16.9866C7.21997 16.9866 7.12551 16.9085 7.09852 16.7522C7.08952 16.7299 7.08502 16.5997 7.08502 16.3616V12.2991H5.88394V16.6629C5.88394 17.0275 5.91993 17.2991 5.9919 17.4777C6.09986 17.753 6.36077 17.8906 6.77463 17.8906C7.20648 17.8906 7.66532 17.6637 8.15115 17.2098V17.8125ZM13.9406 16.1607V13.9621C13.9406 13.4189 13.9001 13.0506 13.8192 12.8571C13.6662 12.4405 13.3468 12.2321 12.861 12.2321C12.4112 12.2321 11.9928 12.433 11.6059 12.8348V10.4129H10.4049V17.8125H11.6059V17.2768C12.0108 17.686 12.4291 17.8906 12.861 17.8906C13.3468 17.8906 13.6662 17.686 13.8192 17.2768C13.9001 17.0759 13.9406 16.7039 13.9406 16.1607ZM18.502 16.0491V15.904H17.274C17.274 16.2835 17.265 16.5104 17.247 16.5848C17.184 16.8527 17.004 16.9866 16.7072 16.9866C16.2933 16.9866 16.0864 16.7299 16.0864 16.2165V15.2455H18.502V14.096C18.502 13.5082 18.3806 13.0766 18.1377 12.8013C17.7868 12.4219 17.3099 12.2321 16.7072 12.2321C16.0954 12.2321 15.614 12.4219 15.2632 12.8013C15.0112 13.0766 14.8853 13.5082 14.8853 14.096V16.0268C14.8853 16.6146 15.0157 17.0461 15.2767 17.3214C15.6275 17.7009 16.1134 17.8906 16.7341 17.8906C17.3819 17.8906 17.8677 17.6935 18.1916 17.2991C18.3536 17.0982 18.448 16.8973 18.475 16.6964C18.493 16.6295 18.502 16.4137 18.502 16.0491ZM10.2969 5.85938V3.51562C10.2969 3.00223 10.1035 2.74554 9.7166 2.74554C9.32973 2.74554 9.1363 3.00223 9.1363 3.51562V5.85938C9.1363 6.38021 9.32973 6.64062 9.7166 6.64062C10.1035 6.64062 10.2969 6.38021 10.2969 5.85938ZM20 14.2411C20 15.9821 19.883 17.2842 19.6491 18.1473C19.5232 18.5863 19.2623 18.9546 18.8664 19.2522C18.4705 19.5499 18.0117 19.721 17.4899 19.7656C15.8345 19.9219 13.3378 20 10 20C6.66217 20 4.16554 19.9219 2.51012 19.7656C1.9883 19.721 1.52722 19.5499 1.12686 19.2522C0.726496 18.9546 0.467836 18.5863 0.350877 18.1473C0.116959 17.314 0 16.0119 0 14.2411C0 12.5 0.116959 11.1979 0.350877 10.3348C0.476833 9.89583 0.737742 9.52753 1.1336 9.22991C1.52946 8.93229 1.9928 8.75744 2.52362 8.70536C4.17004 8.55655 6.66217 8.48214 10 8.48214C13.3378 8.48214 15.8345 8.55655 17.4899 8.70536C18.0117 8.75744 18.4728 8.93229 18.8731 9.22991C19.2735 9.52753 19.5322 9.89583 19.6491 10.3348C19.883 11.1682 20 12.4702 20 14.2411ZM6.53171 0H7.90823L6.2753 4.45312V7.47768H4.92578V4.45312C4.79982 3.90253 4.52542 3.11384 4.10256 2.08705C3.76968 1.32068 3.47728 0.625 3.22537 0H4.65587L5.61404 2.93527L6.53171 0ZM11.525 3.71652V5.66964C11.525 6.27232 11.399 6.71131 11.1471 6.98661C10.8052 7.36607 10.3284 7.5558 9.7166 7.5558C9.11381 7.5558 8.64148 7.36607 8.29959 6.98661C8.04768 6.70387 7.92173 6.26488 7.92173 5.66964V3.71652C7.92173 3.12128 8.04768 2.68601 8.29959 2.41071C8.64148 2.03125 9.11381 1.84152 9.7166 1.84152C10.3284 1.84152 10.8052 2.03125 11.1471 2.41071C11.399 2.68601 11.525 3.12128 11.525 3.71652ZM16.0459 1.90848V7.47768H14.8178V6.86384C14.341 7.32515 13.8776 7.5558 13.4278 7.5558C13.0139 7.5558 12.7485 7.41815 12.6316 7.14286C12.5596 6.96429 12.5236 6.68527 12.5236 6.3058V1.90848H13.7517V6.00446C13.7517 6.25 13.7562 6.38021 13.7652 6.39509C13.7922 6.55878 13.8866 6.64062 14.0486 6.64062C14.2915 6.64062 14.5479 6.48065 14.8178 6.16071V1.90848H16.0459Z" fill="white"/>
</svg>

